<svg xmlns="http://www.w3.org/2000/svg" width="49" height="29" viewBox="0 0 49 29">
  <defs>
    <style>
      .cls-1 {
        fill: #26272b;
        fill-rule: evenodd;
      }
    </style>
  </defs>
  <path id="Rounded_Rectangle_2" data-name="Rounded Rectangle 2" class="cls-1" d="M257,64a10,10,0,0,1-9.95-9H244a0.982,0.982,0,0,1-.78-0.4l-0.013.01L232.821,41.086l-1.068,3.649a10.217,10.217,0,1,1-1.92-.56l1.645-5.621,1.178,0.345,0.634-.486,10.3,13.416,3.885-13.274L249,39l0.371-.214,3.524,6.1A10,10,0,1,1,257,64ZM231.189,46.665l-2.229,7.616-0.016,0A0.987,0.987,0,0,1,228,55a1,1,0,0,1-1-1,0.98,0.98,0,0,1,.056-0.276l-0.016,0,2.227-7.609A7.963,7.963,0,1,0,231.189,46.665Zm17.487-5.083L245.335,53h1.715a9.985,9.985,0,0,1,4.113-7.11Zm3.492,6.049a8,8,0,0,0-3.1,5.369h6.2ZM257,46a7.951,7.951,0,0,0-3.1.631l3.966,6.869-0.014.008A0.968,0.968,0,0,1,258,54a1,1,0,0,1-1,1h-7.931A8,8,0,1,0,257,46Zm-7-9h-4a1,1,0,0,1,0-2h4A1,1,0,0,1,250,37Zm-16,0h-6a1,1,0,0,1,0-2h6A1,1,0,0,1,234,37Z" transform="translate(-218 -35)"/>
</svg>
