<svg xmlns="http://www.w3.org/2000/svg" width="34" height="30.563" viewBox="0 0 34 30.563">
  <defs>
    <style>
      .cls-1 {
        fill: #26272b;
        fill-rule: evenodd;
      }
    </style>
  </defs>
  <path id="Shape_2_copy_3" data-name="Shape 2 copy 3" class="cls-1" d="M314.175,40.389A2,2,0,0,1,313,44a5,5,0,0,0-5,5V61h-0.035a2.965,2.965,0,1,1-5.93,0H302V56a1,1,0,0,0-1-1h-7a5,5,0,0,0-5,5h-0.023c0.011,0.164.023,0.328,0.023,0.5,0,1.933-1.067,3.5-3,3.5a2.989,2.989,0,0,1-2.965-3H283V56h0.184A2.965,2.965,0,0,1,283,55a3,3,0,0,1,3-3V46h2v7h-2v1a1,1,0,0,0-1,1v6h0.034a0.967,0.967,0,1,0,1.932,0H287V60.5c0-.178.014-0.343,0.029-0.5H287c0-.188.041-0.364,0.055-0.549A0.584,0.584,0,0,0,287,59.224V58h0.325A6.977,6.977,0,0,1,294,53h7a3,3,0,0,1,3,3v4h0.1a1.463,1.463,0,0,0-.1.5c0,0.828.172,1.5,1,1.5s1-.672,1-1.5V49a7,7,0,0,1,7-7l-5.5-4.009-6.751,7.67L300,45v1H288a7,7,0,0,1-7-7h2a5,5,0,0,0,5,5h11.548l9.305-10.57,1.5,1.322-1.525,1.732,5.349,3.9Z" transform="translate(-281 -33.438)"/>
</svg>
