<?xml version="1.0" encoding="utf-8"?>
<!-- Generator: Adobe Illustrator 18.1.1, SVG Export Plug-In . SVG Version: 6.00 Build 0)  -->
<svg version="1.1" id="Ebene_1" xmlns="http://www.w3.org/2000/svg" xmlns:xlink="http://www.w3.org/1999/xlink" x="0px" y="0px"
	 viewBox="0 0 80 80" enable-background="new 0 0 80 80" xml:space="preserve">
<path fill="none" stroke="#000000" stroke-miterlimit="10" d="M24,32.9l-4.5-4.3c-0.4-0.4-0.9-0.5-1.4-0.4l-0.3,0.1
	c-0.5,0.1-0.9,0.5-1.1,1l0,0c-0.2,0.6,0,1.3,0.5,1.7l3.5,3.4c0.3,0.3,0.5,0.8,0.5,1.2l-0.2,11.4l-1.5,1.9c-0.4,0.5-0.5,1-0.5,1.6
	l0.1,10.9c0,0.5,0.4,0.8,0.8,0.8h4.3c0.5,0,0.8-0.4,0.8-0.8v-6.4l7-6.3l15.7,0.1v12.7c0,0.5,0.4,0.8,0.8,0.8h4.5
	c0.5,0,0.8-0.4,0.8-0.8V39c0.7-1.3,1.4-2.5,2.1-3.8c0.5-0.8,0.9-1.7,1.4-2.5c1.3,0,2.7,0,4,0l1.1-0.9c0.4-0.3,0.7-0.8,0.7-1.2
	l0.3-2.2l-3.8-1.9l-3.5-4.2l-0.1-4.8c0,0,0,0,0,0c-2.8,3.2-5.6,6.4-8.4,9.6c-1.5,1.7-3,3.4-4.5,5.1c-0.1,0.2-0.4,0.4-0.9,0.6
	c-0.3,0.2-0.7,0.2-1.1,0.2l-16,0.3C24.9,33.4,24.4,33.2,24,32.9z"/>
</svg>
