<svg xmlns="http://www.w3.org/2000/svg" width="45" height="31.281" viewBox="0 0 90 62.562">
  <defs>
    <style>
      .cls-1 {
        fill: #fff;
        fill-rule: evenodd;
      }
    </style>
  </defs>
  <path class="cls-1" d="M2244,495.828l-14.14,14.143a2,2,0,1,1-2.83-2.829L2238.17,496H2157a2,2,0,0,1,0-4h81.17l-11.14-11.142a2,2,0,1,1,2.83-2.829L2244,492.172A3.531,3.531,0,0,1,2244,495.828Zm-88.4,25.864,14.2-14.1a2.018,2.018,0,0,1,2.84,0,1.975,1.975,0,0,1,0,2.821l-11.19,11.11h81.54a1.995,1.995,0,1,1,0,3.989h-81.54l11.19,11.11a1.975,1.975,0,0,1,0,2.821,2.018,2.018,0,0,1-2.84,0l-14.2-14.1A3.515,3.515,0,0,1,2155.6,521.692Z" transform="translate(-2155 -477.469)"/>
</svg>
