<svg xmlns="http://www.w3.org/2000/svg" width="22" height="38" viewBox="0 0 22 38">
  <defs>
    <style>
      .cls-1 {
        fill: #4c4c4c;
        fill-rule: evenodd;
      }
    </style>
  </defs>
  <path id="Shape_2_copy" data-name="Shape 2 copy" class="cls-1" d="M205,55a2.969,2.969,0,0,1-1-.184V61h-0.035A2.989,2.989,0,0,1,201,64c-1.933,0-3-1.567-3-3.5a3.579,3.579,0,0,1,.05-0.5H198V55a1,1,0,0,0-2,0v5h-0.037a3.434,3.434,0,0,1,.037.5c0,1.933-1.067,3.5-3,3.5a2.989,2.989,0,0,1-2.965-3H190V54.816A2.969,2.969,0,0,1,189,55a3,3,0,0,1-3-3V46a7,7,0,0,1,7-7h8a7.025,7.025,0,0,1,7,7h0v6A3,3,0,0,1,205,55Zm1-5.816V46.055a5.02,5.02,0,0,0-5-5.039V41h-8a5,5,0,0,0-5,5v6a1,1,0,0,0,2,0V46h2V59.224a3.941,3.941,0,0,0,0,1.276c0,0.828.172,1.5,1,1.5s1-.672,1-1.5a1.482,1.482,0,0,0-.092-0.5H194V55h0.06a2.127,2.127,0,0,1-.06-0.5,3.05,3.05,0,0,1,6,0,2.127,2.127,0,0,1-.06.5H200v5h0.092a1.482,1.482,0,0,0-.092.5c0,0.828.172,1.5,1,1.5s1-.672,1-1.5V46h2v6a1,1,0,0,0,2,0V49.184ZM197,38a6,6,0,1,1,6-6A6,6,0,0,1,197,38Zm0-10a4,4,0,1,0,4,4A4,4,0,0,0,197,28Z" transform="translate(-186 -26)"/>
</svg>
