<svg xmlns="http://www.w3.org/2000/svg" width="24" height="49" viewBox="0 0 24 49">
  <defs>
    <style>
      .cls-1 {
        fill: #4c4c4c;
        fill-rule: evenodd;
      }
    </style>
  </defs>
  <path class="cls-1" d="M174,50a2.969,2.969,0,0,1-1-.184V61h-0.05a3.492,3.492,0,0,1-6.95-.5,3.579,3.579,0,0,1,.05-0.5H166V50a1,1,0,0,0-2,0V60h-0.037a3.434,3.434,0,0,1,.037.5,3.492,3.492,0,0,1-6.95.5H157V49.816A2.969,2.969,0,0,1,156,50a3,3,0,0,1-3-3V37a7,7,0,0,1,7-7h10a7.025,7.025,0,0,1,7,7h0V47A3,3,0,0,1,174,50Zm1-5.816V37.055a5.02,5.02,0,0,0-5-5.039V32H160a5,5,0,0,0-5,5V47a1,1,0,0,0,2,0V37h2V60h0.092a1.482,1.482,0,0,0-.092.5,1.5,1.5,0,0,0,3,0,1.482,1.482,0,0,0-.092-0.5H162V50a3,3,0,0,1,6,0V60h0.092a1.482,1.482,0,0,0-.092.5,1.5,1.5,0,0,0,3,0,1.482,1.482,0,0,0-.092-0.5H171V37h2V47a1,1,0,0,0,2,0V44.184ZM165,29a7,7,0,1,1,7-7A7,7,0,0,1,165,29Zm0-12a5,5,0,1,0,5,5A5,5,0,0,0,165,17Z" transform="translate(-153 -15)"/>
</svg>
