<svg xmlns="http://www.w3.org/2000/svg" width="42" height="42" viewBox="0 0 84 84">
  <defs>
    <style>
      .cls-1 {
        fill: #fff;
        fill-rule: evenodd;
      }
    </style>
  </defs>
  <path class="cls-1" d="M597,197a42,42,0,1,1,42-42A42,42,0,0,1,597,197Zm-29.956-18.635c-0.02-.122-0.017-0.243-0.044-0.365-0.9-3.993-2.183-2.856-4-8-1.556-4.407-.348-10.208-3.845-11.654A37.788,37.788,0,0,0,567.044,178.365ZM615,140s-4.09-4.244-7-3c-6.06,2.59-9.306,2.846-3,5,3.515,1.2,8.523-2.647,9-1,1.242,4.293,10,6.246,11,2S615,140,615,140Zm16,15c0.478,1.5,1.824,3.115,0,6-2.131,3.369-2.575,5.964-4,10s-9.94,15.921-12,16-3.968-12.078-3-13,1.16-9.092-3-12-3.613,3.542-9,1-8.557-10.725-5-16,8.506-5.748,6-6c-3.015-.3-5.875-8.937,3-11,5.016-1.166,2.134,1.1,4-2,1.273-2.116,5.659-3.722,8.873-5.39a37.752,37.752,0,0,0-14.827-5.266c-2.725,3.939-5.415,8.532-8.046,7.656-2.938-.978-8.473,4.7-11,3s1.542-3.33,0-5c-1.461-1.583-2.782-1.938-3.708-1.621-0.162.085-.326,0.167-0.487,0.255A2.355,2.355,0,0,0,578,124c0.427,2.344-2.258,3.318-2,5s2.447,8.768-2,7-0.961-.767-3,1-4.636,1.754-6,6c-1.041,3.242-4.5,4.629-5.687,7.192-0.125.993-.22,1.994-0.268,3.009,0.915,4.415,3.069,2.336,6.955,3.8,3.947,1.486,4.756,6.654,8,9s9.023-1.755,8,6-1.68,9.851-5,10c-1.36.061-2.008,1.734-2.208,3.826A37.99,37.99,0,0,0,635,155c0-1.287-.066-2.558-0.191-3.811C632.827,152.539,630.725,154.138,631,155Z" transform="translate(-555 -113)"/>
</svg>
