<svg xmlns="http://www.w3.org/2000/svg" width="44" height="44" viewBox="0 0 88 88">
  <defs>
    <style>
      .cls-1 {
        fill: #fff;
        fill-rule: evenodd;
      }

      .cls-2 {
        fill: none;
        stroke: #fff;
        stroke-width: 4px;
      }
    </style>
  </defs>
  <path class="cls-1" d="M375,150h4v27h-4V150Zm2-2a2,2,0,1,1-2,2A2,2,0,0,1,377,148Zm0,27a2,2,0,1,1-2,2A2,2,0,0,1,377,175Zm0-27v4h-5v-4h5Zm-5,0a2,2,0,1,1-2,2A2,2,0,0,1,372,148Zm3.5-15a3.5,3.5,0,1,1-3.5,3.5A3.5,3.5,0,0,1,375.5,133Z" transform="translate(-332 -111)"/>
  <circle class="cls-2" cx="44" cy="44" r="42"/>
</svg>
